HIERARCHY
ROOT Hips
{
	OFFSET 0.000000 0.000000 0.000000
	CHANNELS 6 Xposition Yposition Zposition Xrotation Yrotation Zrotation
	JOINT LeftUpLeg_virtual
	{
		OFFSET 0.000000 0.000000 0.000000
		CHANNELS 3 Xrotation Yrotation Zrotation
		JOINT LeftUpLeg
		{
			OFFSET 15.427100 -6.655098 0.678600
			CHANNELS 3 Xrotation Yrotation Zrotation
			JOINT LeftLeg
			{
				OFFSET 4.081073 -39.591068 13.024000
				CHANNELS 3 Xrotation Yrotation Zrotation
				JOINT LeftFoot
				{
					OFFSET -4.081074 -37.707932 -15.979700
					CHANNELS 3 Xrotation Yrotation Zrotation
					JOINT LeftToeBase
					{
						OFFSET 5.346399 -15.068900 20.645000
						CHANNELS 3 Xrotation Yrotation Zrotation
						JOINT LeftToe_End
						{
							OFFSET 2.754700 0.931300 11.300900
							CHANNELS 3 Xrotation Yrotation Zrotation
							End Site
							{
								OFFSET 0 0 0
							}
						}
					}
				}
			}
		}
	}
	JOINT RightUpLeg_virtual
	{
		OFFSET 0.000000 0.000000 0.000000
		CHANNELS 3 Xrotation Yrotation Zrotation
		JOINT RightUpLeg
		{
			OFFSET -15.569500 -6.655098 0.678600
			CHANNELS 3 Xrotation Yrotation Zrotation
			JOINT RightLeg
			{
				OFFSET -4.081825 -39.591045 13.023800
				CHANNELS 3 Xrotation Yrotation Zrotation
				JOINT RightFoot
				{
					OFFSET 4.081824 -37.707954 -15.979600
					CHANNELS 3 Xrotation Yrotation Zrotation
					JOINT RightToeBase
					{
						OFFSET -5.346400 -15.068900 20.645000
						CHANNELS 3 Xrotation Yrotation Zrotation
						JOINT RightToe_End
						{
							OFFSET -2.754700 0.931300 11.300900
							CHANNELS 3 Xrotation Yrotation Zrotation
							End Site
							{
								OFFSET 0 0 0
							}
						}
					}
				}
			}
		}
	}
	JOINT Spine_virtual
	{
		OFFSET 0.000000 0.000000 0.000000
		CHANNELS 3 Xrotation Yrotation Zrotation
		JOINT Spine
		{
			OFFSET -0.279200 12.230698 -2.892100
			CHANNELS 3 Xrotation Yrotation Zrotation
			JOINT Spine1
			{
				OFFSET -0.232667 10.192268 -1.242267
				CHANNELS 3 Xrotation Yrotation Zrotation
				JOINT Spine1_split
				{
					OFFSET -0.232667 10.192268 -1.242267
					CHANNELS 3 Xrotation Yrotation Zrotation
					JOINT Spine2
					{
						OFFSET -0.232667 10.192268 -1.242267
						CHANNELS 3 Xrotation Yrotation Zrotation
						JOINT Neck_virtual
						{
							OFFSET 0.000000 0.000000 0.000000
							CHANNELS 3 Xrotation Yrotation Zrotation
							JOINT Neck
							{
								OFFSET -0.418800 17.814194 8.416900
								CHANNELS 3 Xrotation Yrotation Zrotation
								JOINT Head
								{
									OFFSET 0.000000 7.031097 3.806800
									CHANNELS 3 Xrotation Yrotation Zrotation
									JOINT HeadTop_End
									{
										OFFSET 0.000000 24.646606 12.978600
										CHANNELS 3 Xrotation Yrotation Zrotation
										End Site
										{
											OFFSET 0 0 0
										}
									}
								}
							}
						}
						JOINT LeftShoulder_virtual
						{
							OFFSET 0.000000 0.000000 0.000000
							CHANNELS 3 Xrotation Yrotation Zrotation
							JOINT LeftShoulder
							{
								OFFSET 8.476499 7.247704 -3.868750
								CHANNELS 3 Xrotation Yrotation Zrotation
								JOINT LeftShoulder_split
								{
									OFFSET 8.476499 7.247704 -3.868750
									CHANNELS 3 Xrotation Yrotation Zrotation
									JOINT LeftArm
									{
										OFFSET 9.308998 -2.777710 0.208600
										CHANNELS 3 Xrotation Yrotation Zrotation
										JOINT LeftForeArm
										{
											OFFSET 29.972298 0.000000 0.000000
											CHANNELS 3 Xrotation Yrotation Zrotation
											JOINT LeftHand
											{
												OFFSET 26.026505 0.000000 0.000000
												CHANNELS 3 Xrotation Yrotation Zrotation
												End Site
												{
													OFFSET 0 0 0
												}
											}
										}
									}
								}
							}
						}
						JOINT RightShoulder_virtual
						{
							OFFSET 0.000000 0.000000 0.000000
							CHANNELS 3 Xrotation Yrotation Zrotation
							JOINT RightShoulder
							{
								OFFSET -7.570500 7.247704 -3.868750
								CHANNELS 3 Xrotation Yrotation Zrotation
								JOINT RightShoulder_split
								{
									OFFSET -7.570500 7.247704 -3.868750
									CHANNELS 3 Xrotation Yrotation Zrotation
									JOINT RightArm
									{
										OFFSET -9.308998 -2.777710 0.208500
										CHANNELS 3 Xrotation Yrotation Zrotation
										JOINT RightForeArm
										{
											OFFSET -29.972300 0.000000 0.000000
											CHANNELS 3 Xrotation Yrotation Zrotation
											JOINT RightHand
											{
												OFFSET -26.026505 0.000000 0.000000
												CHANNELS 3 Xrotation Yrotation Zrotation
												End Site
												{
													OFFSET 0 0 0
												}
											}
										}
									}
								}
							}
						}
					}
				}
			}
		}
	}
}
MOTION
Frames: 4
Frame Time: 0.03333333
10.408430 191.304535 63.485607 0.000000 0.000000 0.000000 6.198977 17.237263 1.069990 -35.551743 19.664144 12.041865 48.893158 -0.375867 -2.228488 8.843784 0.427860 -7.479314 0.028196 -0.328291 4.560749 0.000000 0.000000 0.000000 10.419272 13.407925 -0.178424 -47.249941 0.781541 -25.077733 18.107217 11.032619 7.060898 5.365254 13.430515 24.508800 -1.398069 0.479370 -0.090186 0.000000 0.000000 0.000000 6.627850 15.400536 0.543135 5.879845 -1.891226 -2.946001 16.420401 -3.419274 1.242673 1.923811 1.224966 -0.084293 0.000000 0.000000 0.000000 16.163684 -3.312587 1.551777 -0.898303 1.542405 -8.291207 -4.799021 -7.093943 15.066284 0.000000 0.000000 0.000000 16.166470 -3.181303 1.293274 -0.797170 8.602050 5.016614 0.894414 0.114269 -0.360666 -106.101859 -54.092547 -116.717210 7.546377 -87.625863 8.385176 0.000000 0.000000 0.000000 16.985212 -3.458532 1.312052 3.059286 13.233985 0.940346 -2.476054 0.390519 0.726199 -35.463216 41.292233 62.215811 -0.570004 55.528372 -0.203797 0.000000 0.000000 0.000000 
10.545155 186.610184 69.129723 0.000000 0.000000 0.000000 5.018143 18.381479 0.827684 -36.376556 21.140759 13.475165 48.527753 0.649892 -4.131257 12.706893 1.508925 -8.617245 0.864864 -0.368864 4.212728 0.000000 0.000000 0.000000 8.705795 14.185694 -0.359935 -44.038365 -1.757308 -25.162424 19.168299 11.595353 7.245132 4.923918 16.130094 22.467168 -0.908732 0.850944 -0.447416 0.000000 0.000000 0.000000 4.896511 15.405982 0.526826 6.762482 -1.540584 -2.941543 16.484744 -2.669347 1.559651 1.185883 0.754980 -0.058565 0.000000 0.000000 0.000000 16.768400 -2.538265 1.890618 -1.852765 1.020842 -7.968485 -4.145425 -7.478623 14.475025 0.000000 0.000000 0.000000 16.391839 -2.395928 1.618242 -0.777787 7.974182 4.621905 1.593859 1.173926 -0.952974 -103.896555 -53.970106 -114.429315 -5.853182 -87.622325 -4.461661 0.000000 0.000000 0.000000 17.464193 -2.654505 1.838600 3.054405 13.464025 1.078540 -3.139950 0.340535 0.338361 -38.253612 40.440246 62.273396 -0.689370 53.044741 -0.178482 0.000000 0.000000 0.000000 
10.663412 180.271484 74.984940 0.000000 0.000000 0.000000 3.566806 18.109564 0.898118 -35.301915 22.382001 14.539644 46.716459 1.662989 -5.442299 15.929541 2.579818 -9.727244 1.981675 -0.171942 2.736202 0.000000 0.000000 0.000000 6.603840 14.768797 -0.368748 -39.517986 -4.163856 -24.634991 20.092120 11.662292 7.281089 4.852459 17.460629 21.373537 -1.951636 1.141612 -0.849847 0.000000 0.000000 0.000000 3.300116 15.284690 0.578657 7.390445 -1.159063 -3.074786 16.417625 -2.064371 1.618797 0.557013 0.270498 0.063605 0.000000 0.000000 0.000000 17.043038 -1.915416 1.983398 -2.713355 0.562823 -7.656200 -3.507995 -7.672400 13.548468 0.000000 0.000000 0.000000 16.439362 -1.743156 1.620827 -0.751051 7.005686 4.499565 1.761269 1.759915 -0.896362 -101.178406 -52.982273 -111.128523 -10.487577 -86.261779 -8.786738 0.000000 0.000000 0.000000 17.642604 -1.876068 2.063500 2.904442 13.420005 1.088101 -3.395716 -0.090407 0.179237 -40.558049 38.908777 63.158568 -0.966998 54.483948 0.023643 0.000000 0.000000 0.000000 
11.002888 172.394135 81.022156 0.000000 0.000000 0.000000 1.716885 17.024103 1.494780 -32.170235 22.948981 14.575543 43.181013 1.756217 -5.581438 18.081302 2.526052 -11.729550 2.159493 0.031851 0.875004 0.000000 0.000000 0.000000 4.201340 15.152568 0.048248 -34.284278 -5.957595 -23.673465 20.775211 11.372473 7.019218 5.385950 17.308505 21.476401 -2.898762 1.253707 -1.081396 0.000000 0.000000 0.000000 1.674612 14.908834 1.075498 7.731592 -0.687632 -3.271371 16.165460 -1.572297 1.253284 0.431635 -0.056619 0.286603 0.000000 0.000000 0.000000 16.787008 -1.489674 1.638020 -3.142597 0.315553 -7.435721 -2.543354 -7.495822 12.420123 0.000000 0.000000 0.000000 16.236482 -1.300005 1.144296 -0.716499 6.077951 4.642106 2.036769 1.370022 -0.331503 -98.266567 -51.575336 -107.311855 -8.795094 -83.492506 -7.085619 0.000000 0.000000 0.000000 17.444491 -1.241277 1.797083 2.644590 13.307575 0.999128 -3.325926 -0.545972 0.185244 -41.799883 37.313532 64.715154 -1.239407 59.574747 0.309365 0.000000 0.000000 0.000000 
